<!-- Created with Inkscape (http://www.inkscape.org/) -->
<svg xmlns:rdf="http://www.w3.org/1999/02/22-rdf-syntax-ns#" xmlns="http://www.w3.org/2000/svg" height="284" width="390" version="1.1" xmlns:cc="http://creativecommons.org/ns#" xmlns:dc="http://purl.org/dc/elements/1.1/">
 <g transform="translate(-166.53302,-474.6379)">
  <g transform="matrix(-1.1396011,0,0,1.1396011,813.08929,187.0447)">
   <path fill="#000" d="m558,501c-9.98-1.24-17.4-3.76-19.9-5.87-2.42-2.03-4.36-2.51-12.7-3.09-6.19-0.435-11.9-1.48-15.4-2.83-4.74-1.84-5.97-2.9-8.79-7.59-1.8-3-3.86-5.46-4.57-5.47-2.14-0.0299-10.1-2.76-11.7-4-0.825-0.642-4.06-2.61-7.2-4.37-3.77-2.12-9.14-6.9-15.9-14.1-9.92-10.7-10.3-10.9-13.8-10.4-1.99,0.29-8.8,0.934-15.1,1.43-6.32,0.499-17.6,1.85-25,2.99-7.68,1.19-17.4,2.01-22.5,1.9-6.54-0.135-10,0.267-12.7,1.47-5.73,2.55-10.6,2.07-19.2-1.91-6.16-2.85-7.92-4.16-8.74-6.5-0.563-1.61-1.4-2.94-1.86-2.94s-2.13,1.91-3.71,4.25c-2.58,3.81-3.23,4.21-6.32,3.91-1.89-0.186-4.95-1.54-6.8-3s-5.59-4.24-8.3-6.16c-3.43-2.43-5.79-5.18-7.71-9-2.44-4.84-3.61-5.95-9.7-9.22-3.81-2.05-7.8-3.73-8.88-3.75-1.08-0.0174-3.65,1.62-5.72,3.65-3.62,3.53-4.1,3.69-12,4.1-8.05,0.414-8.41,0.333-13.2-2.93-11.2-7.58-13.9-17.2-7.88-27.9,3.95-7,9.63-10.3,16.4-9.47,3.37,0.394,5.83-0.0118,9.25-1.52l4.66-2.06v-6.9c0-8.37,1.28-10.2,11.5-16.3,6.26-3.77,7.04-4.59,7.76-8.19,0.439-2.2,2.45-8.4,4.47-13.8l3.67-9.77-3.43-3.35c-1.88-1.84-4.01-4.08-4.71-4.98-0.709-0.897-2.19-1.63-3.28-1.63-1.1,0-3.6-0.673-5.57-1.49-3.02-1.26-3.48-1.86-2.99-3.84,0.422-1.68-0.0754-2.97-1.74-4.54-1.28-1.2-2.92-3.97-3.64-6.14-0.717-2.17-2.38-4.66-3.7-5.52-3.2-2.09-6.29-7.33-6.29-10.7-0.002-1.48-1.02-3.85-2.25-5.27-1.83-2.09-3.6-2.74-9.43-3.45-3.95-0.485-7.65-1.17-8.23-1.53-0.577-0.357-4.32-1.07-8.32-1.58-14.6-1.86-19.4-3.74-21.6-8.52-0.524-1.12-0.302-10.3-0.302-10.3h342v249s-3.65-0.0842-8.96-0.742zm-126-71c3.97-1.33,7.07-3.77,6.33-4.96-0.285-0.462-2.41-1.34-4.73-1.95-2.31-0.613-5.42-2.26-6.89-3.65-2.62-2.47-2.92-2.52-12.2-1.82-8.22,0.616-9.57,0.967-9.57,2.49,0,0.974-0.908,2.93-2.02,4.34s-1.67,2.77-1.25,3.03c0.422,0.255,4.14,0.963,8.27,1.57,15.5,2.29,17.8,2.39,22.1,0.962zm-40.7-1.45c1.71-0.657,1.67-0.813-0.512-2.02-1.3-0.722-3.46-1.33-4.8-1.35-1.34-0.0195-3.93-0.577-5.76-1.24-2.84-1.03-3.58-0.958-5,0.469-1.56,1.56-1.55,1.81,0.26,3.82,1.7,1.89,2.66,2.08,7.95,1.59,3.31-0.306,6.85-0.877,7.87-1.27zm20.1-30.4c0.326-0.528,0.188-1.77-0.307-2.75-1.79-3.57-3.04-8.47-2.5-9.86,0.299-0.78-0.177-1.7-1.06-2.03-0.882-0.338-1.6-1.23-1.6-1.97,0-0.747-0.985-1.88-2.19-2.53-3.98-2.13-11.8-10.1-11.8-12.1,0-2.08-0.163-2.3-7.58-10.3-2.79-3.02-5.67-5.49-6.39-5.49-0.722,0-5.06-1.61-9.64-3.58s-9.07-3.43-9.96-3.25c-1.14,0.231-2.32,3.07-3.95,9.52-1.28,5.06-3.48,10.9-4.9,13-1.42,2.08-2.57,4.29-2.57,4.9,0,0.612-0.873,1.9-1.94,2.87-1.97,1.79-5.11,9.62-5,12.5,0.0366,0.92,2.84,2.92,6.75,4.82,6.43,3.12,7.05,3.23,16.1,2.77,5.16-0.266,9.97-0.976,10.7-1.58,1.51-1.25,9.85-0.491,18.4,1.68,3,0.763,7.3,1.39,9.56,1.39,2.25,0,4.97,0.661,6.04,1.47,2.3,1.74,3.12,1.86,3.92,0.572zm-83.5-25.2c2.14-2.9,4.88-7.81,12.2-21.9,6.47-12.5,4.87-15.8-8.92-18.5-4.78-0.933-9.42-2.08-10.3-2.56-1.92-1-2.82,1.28-2.84,7.23-0.0194,5.25-4.81,19.8-7.64,23.1-1.31,1.55-2.37,3.13-2.36,3.5,0.0242,0.903,7.62,7.17,8.69,7.17,0.465,0,2.41,1.1,4.32,2.45s3.72,2.47,4.03,2.5c0.309,0.027,1.6-1.36,2.88-3.08z"/>
  </g>
 </g>
</svg>
